PathFileType	4	(X/Y/Z)	D:\TRACE\v60_Jaco2_6-2-23\JustArmDRS_Motion2_3-platform.trc
DataRate	CameraRate	NumFrames	NumMarkers	Units	OrigDataRate	OrigDataStartFrame	OrigNumFrames
100.00	100.00	      75	5	mm	100.00	1	      6969
Frame#	Time	Left_Front			Right_Front			Left_Aft			Right_Aft			Post			
		X1	Y1	Z1	X2	Y2	Z2	X3	Y3	Z3	X4	Y4	Z4	X5	Y5	Z5	

1	0.000	-800.60126	8.84525	-638.95673	769.33185	10.13647	-644.38422	-708.66833	7.82068	496.10483	733.16589	7.04364	505.97113	-14.09648	1308.04871	-961.91534	
2	0.010	-800.62347	8.78869	-638.95587	769.35663	10.11517	-644.39386	-708.65802	7.80606	496.10284	733.16644	7.02469	505.98660	-14.15572	1308.03833	-961.93665	
3	0.020	-800.65039	8.79868	-638.93188	769.31293	10.15435	-644.37518	-708.68018	7.81590	496.11874	733.12988	7.02396	506.00110	-14.23942	1308.05591	-961.92859	
4	0.030	-800.62128	8.78069	-638.92957	769.36523	10.11966	-644.37207	-708.66754	7.82252	496.11789	733.17456	7.03642	505.98868	-14.18234	1308.06006	-961.98590	
5	0.040	-800.61053	8.84995	-638.91498	769.32465	10.16290	-644.37689	-708.68365	7.85247	496.10190	733.21936	7.03513	505.97421	-14.19121	1308.06982	-961.91345	
6	0.050	-800.55804	8.76032	-638.95703	769.37567	10.10163	-644.37750	-708.67712	7.81781	496.10666	733.43243	7.01032	505.85596	-14.20436	1308.06494	-961.91730	
7	0.060	-800.61646	8.79251	-638.95734	769.43616	10.05430	-644.37653	-708.65015	7.78978	496.14600	733.40485	6.95325	505.88007	-14.19898	1308.05811	-961.92584	
8	0.070	-800.61444	8.72827	-638.97266	769.35840	10.14943	-644.33771	-708.67340	7.80525	496.10080	733.39746	6.95869	505.86691	-14.19301	1308.02673	-961.92468	
9	0.080	-800.61652	8.83549	-638.90656	769.39258	10.11062	-644.41357	-708.66315	7.82462	496.09592	733.15363	7.02482	506.02478	-14.16060	1308.04333	-961.91504	
10	0.090	-800.59570	8.87684	-638.94409	769.40808	10.08926	-644.36401	-708.66565	7.83839	496.12115	733.17688	7.01865	505.98352	-14.14759	1308.02295	-961.91882	
11	0.100	-800.58844	8.81712	-638.93170	769.42047	10.09270	-644.36292	-708.64801	7.84780	496.13336	733.16443	7.02453	505.98987	-14.14254	1308.05762	-961.94318	
12	0.110	-800.59027	8.84103	-638.95648	769.39368	10.09798	-644.36633	-708.67224	7.81601	496.10394	733.41736	6.95029	505.85007	-14.16084	1308.02454	-961.88727	
13	0.120	-800.58972	8.76596	-638.93219	769.42847	10.09377	-644.34460	-708.67090	7.82706	496.10394	733.43146	6.95570	505.84326	-14.11953	1308.01086	-961.92804	
14	0.130	-800.63654	8.79549	-638.87744	769.34583	10.11020	-644.39600	-708.67889	7.84755	496.13889	733.09680	7.00906	506.01337	-14.20754	1308.04773	-961.89673	
15	0.140	-800.63580	8.88574	-638.88489	769.28796	10.15042	-644.39734	-708.69458	7.86746	496.13004	733.16327	7.03256	505.97803	-14.18028	1308.05261	-961.92999	
16	0.150	-800.59808	8.80040	-638.92145	769.36993	10.12366	-644.41370	-708.67761	7.81086	496.13452	733.19897	7.05058	505.98111	-14.13205	1308.05029	-961.88702	
17	0.160	-800.56158	8.78323	-638.94080	769.33563	10.13591	-644.39502	-708.68860	7.88115	496.13522	733.15887	7.05899	505.97714	-14.18349	1308.05151	-961.94952	
18	0.170	-800.60443	8.78581	-638.89191	769.31018	10.11944	-644.38477	-708.65057	7.85502	496.15179	733.46100	6.98412	505.85605	-14.21908	1308.04016	-961.89734	
19	0.180	-800.57764	8.81417	-638.90259	769.33643	10.11703	-644.38965	-708.67706	7.82092	496.12546	733.44177	6.97084	505.83548	-14.10214	1308.02612	-961.91351	
20	0.190	-800.60211	8.78206	-638.92206	769.37439	10.08948	-644.38940	-708.66498	7.83270	496.12616	733.12177	7.01591	505.97946	-14.14103	1308.05139	-961.92059	
21	0.200	-800.56610	8.79775	-638.92865	769.36841	10.12688	-644.37225	-708.66809	7.82973	496.12207	733.48456	6.99741	505.84760	-14.19132	1308.07678	-961.86548	
22	0.210	-800.58997	8.82880	-638.95197	769.36731	10.09822	-644.37482	-708.72284	7.86865	496.10629	733.13086	7.03478	505.97928	-14.17832	1308.07861	-961.93866	
23	0.220	-800.55890	8.80605	-638.92621	769.38928	10.09697	-644.39008	-708.68646	7.83607	496.11087	733.44397	6.98643	505.85889	-14.15271	1308.05139	-961.94452	
24	0.230	-800.61560	8.87541	-638.89636	769.33594	10.12300	-644.36432	-708.63202	7.83255	496.12732	733.45020	6.97069	505.85022	-14.21242	1308.04126	-961.88849	
25	0.240	-800.59949	8.80641	-638.92108	769.37079	10.07617	-644.34943	-708.66785	7.83995	496.08899	733.44470	6.99206	505.87546	-14.09609	1308.02307	-961.91760	
26	0.250	-800.61621	8.83857	-638.94220	769.38556	10.09197	-644.36176	-708.65985	7.82739	496.11383	733.16467	7.05007	505.96603	-14.17441	1308.03992	-961.92584	
27	0.260	-800.62781	8.87584	-638.92566	769.33386	10.16321	-644.38123	-708.65637	7.83311	496.11441	733.44415	6.98428	505.87729	-14.07823	1308.01025	-961.94330	
28	0.270	-800.58130	8.85318	-638.93768	769.27490	10.15547	-644.40033	-708.65167	7.82308	496.12650	733.13953	7.01730	505.99023	-14.21500	1308.06262	-961.88916	
29	0.280	-800.59979	8.83965	-638.95630	769.39197	10.09114	-644.36505	-708.64655	7.81644	496.13083	733.44617	6.97318	505.86523	-14.15272	1308.03723	-961.93927	
30	0.290	-800.61023	8.83910	-638.96106	769.33124	10.12337	-644.38214	-708.67230	7.84902	496.12378	733.40039	6.96565	505.86020	-14.16979	1308.02246	-961.89923	
31	0.300	-800.58832	8.81790	-638.90631	769.30914	10.16613	-644.36005	-708.64752	7.83710	496.11365	733.45880	6.98833	505.86465	-14.18258	1308.04565	-961.95294	
32	0.310	-800.59204	8.85333	-638.90851	769.27148	10.13833	-644.42151	-708.67511	7.82576	496.10629	733.46942	6.99623	505.86389	-14.18568	1308.04199	-961.89844	
33	0.320	-800.63489	8.83168	-638.93195	769.36035	10.16113	-644.36871	-708.65039	7.80109	496.10068	733.15021	7.00217	505.98169	-14.21115	1308.04431	-961.90509	
34	0.330	-800.61810	8.81816	-638.92804	769.37415	10.07332	-644.36176	-708.67645	7.84440	496.12531	733.15308	7.00516	505.97766	-14.23005	1308.06348	-961.93878	
35	0.340	-800.62445	8.80713	-638.96649	769.31097	10.15188	-644.36615	-708.67249	7.81658	496.14453	733.40839	6.95900	505.84891	-14.10121	1308.02930	-961.89221	
36	0.350	-800.58942	8.79016	-638.94238	769.31439	10.15221	-644.38983	-708.68750	7.86340	496.10330	733.12805	7.01727	505.99933	-14.14819	1308.02991	-961.87256	
37	0.360	-800.57123	8.81978	-638.96704	769.29718	10.13796	-644.36560	-708.70184	7.87713	496.09528	733.19202	7.02930	505.96335	-14.25684	1308.09167	-961.91217	
38	0.370	-800.58771	8.83452	-638.93152	769.34418	10.09341	-644.39941	-708.68982	7.83856	496.07587	733.46564	6.97948	505.87051	-14.21466	1308.07446	-961.88708	
39	0.380	-800.61414	8.83253	-639.00562	769.37756	10.10890	-644.38141	-708.70886	7.83407	496.08655	733.15070	7.03064	505.98941	-14.20249	1308.06799	-961.89240	
40	0.390	-800.61426	8.79305	-638.94916	769.40509	10.08029	-644.36627	-708.65564	7.83039	496.13757	733.14899	7.01933	505.98398	-14.16333	1308.02734	-961.91541	
41	0.400	-800.62854	8.81104	-638.93860	769.38837	10.13536	-644.38013	-708.65686	7.82284	496.12772	733.41357	6.95998	505.84772	-14.20077	1308.02771	-961.90497	
42	0.410	-800.62164	8.81509	-638.93365	769.40436	10.10103	-644.37231	-708.64764	7.80734	496.12234	733.42816	6.97713	505.88052	-14.23906	1308.03821	-961.91113	
43	0.420	-800.61737	8.86342	-638.85046	769.37305	10.09177	-644.36121	-708.71661	7.82612	496.08228	733.19672	7.02330	505.97849	-14.20667	1308.05200	-961.92432	
44	0.430	-800.62091	8.83947	-638.95447	769.41724	10.08809	-644.35968	-708.68457	7.82663	496.13657	733.40094	6.97777	505.86731	-14.12359	1308.04395	-961.93597	
45	0.440	-800.62262	8.80031	-638.92426	769.38129	10.09474	-644.37915	-708.67920	7.84398	496.09238	733.38586	6.96864	505.87482	-14.14519	1308.03296	-961.96057	
46	0.450	-800.67535	8.83982	-638.89679	769.40210	10.07906	-644.35754	-708.63831	7.82590	496.13000	733.44373	6.99360	505.85602	-14.17185	1308.01782	-961.86926	
47	0.460	-800.61371	8.80114	-638.92163	769.40125	10.11466	-644.37128	-708.67719	7.83209	496.13721	733.14984	7.00405	505.99579	-14.18735	1308.03625	-961.91296	
48	0.470	-800.63312	8.81055	-638.89294	769.34906	10.13140	-644.37042	-708.68585	7.81017	496.12042	733.17615	7.05888	505.98148	-14.18502	1308.06494	-961.91272	
49	0.480	-800.58862	8.85343	-638.94269	769.28766	10.15805	-644.40411	-708.67047	7.81874	496.10141	733.13147	7.01707	505.97949	-14.17572	1308.06506	-961.90039	
50	0.490	-800.61420	8.81043	-638.95721	769.36310	10.14468	-644.36682	-708.66888	7.81622	496.12021	733.11023	6.98896	505.98450	-14.20124	1308.06274	-961.90869	
51	0.500	-800.60309	8.82627	-638.93909	769.39349	10.10670	-644.36218	-708.66864	7.81966	496.12756	733.43011	6.98627	505.87177	-14.22269	1308.05750	-961.93091	
52	0.510	-800.58765	8.81128	-638.92456	769.34552	10.11751	-644.31409	-708.69305	7.85181	496.09512	733.43982	6.97479	505.86929	-14.18582	1308.08191	-961.93219	
53	0.520	-800.61432	8.82597	-638.91785	769.36810	10.10062	-644.39301	-708.65637	7.83621	496.12231	733.44067	6.99644	505.86841	-14.14207	1308.06030	-961.93359	
54	0.530	-800.61395	8.83414	-638.94171	769.38910	10.11596	-644.36890	-708.66974	7.84856	496.10843	733.20844	7.06102	505.98322	-14.22339	1308.06970	-961.89624	
55	0.540	-800.62634	8.85782	-638.95679	769.38556	10.10784	-644.37164	-708.67438	7.82028	496.09741	733.45380	6.97921	505.85507	-14.20983	1308.04590	-961.95123	
56	0.550	-800.61426	8.82325	-638.96417	769.28418	10.12953	-644.41608	-708.67548	7.82880	496.09592	733.17877	7.03908	505.98099	-14.14168	1308.05469	-961.90759	
57	0.560	-800.60834	8.86387	-638.90442	769.30811	10.13470	-644.41675	-708.64844	7.79382	496.13657	733.16534	7.01682	505.97009	-14.17910	1308.05029	-961.91028	
58	0.570	-800.62640	8.86363	-638.91370	769.30133	10.15447	-644.39655	-708.66431	7.82774	496.15027	733.43188	6.98993	505.84811	-14.21037	1308.05701	-961.88782	
59	0.580	-800.62451	8.79476	-638.90704	769.30652	10.14637	-644.40570	-708.67554	7.83191	496.13669	733.16022	7.02984	506.00931	-14.20488	1308.05017	-961.90173	
60	0.590	-800.58539	8.76488	-638.95789	769.38483	10.09566	-644.35382	-708.70563	7.84124	496.12198	733.12140	7.01154	505.99353	-14.17151	1308.06812	-961.93524	
61	0.600	-800.61554	8.81266	-638.94525	769.40326	10.11062	-644.35425	-708.69891	7.84142	496.12686	733.15863	7.04731	505.99487	-14.21356	1308.05054	-961.93103	
62	0.610	-800.57300	8.84484	-638.97412	769.33398	10.15149	-644.40881	-708.67712	7.81226	496.08752	733.43182	6.96723	505.86615	-14.17211	1308.07178	-961.92780	
63	0.620	-800.61432	8.81758	-638.93469	769.39258	10.10205	-644.39813	-708.67395	7.80818	496.12146	733.42645	6.99516	505.88318	-14.20800	1308.04016	-961.94360	
64	0.630	-800.59344	8.84061	-638.93958	769.34631	10.11598	-644.39032	-708.66473	7.80310	496.11298	733.15350	7.02933	506.02142	-14.19794	1308.03943	-961.91266	
65	0.640	-800.58960	8.81864	-638.95508	769.38745	10.08531	-644.38629	-708.64172	7.80823	496.16574	733.47192	6.98645	505.86609	-14.22786	1308.07825	-961.90015	
66	0.650	-800.64056	8.82324	-638.91223	769.33423	10.14392	-644.36755	-708.69928	7.85175	496.10556	733.42419	6.95597	505.86963	-14.21597	1308.05530	-961.90533	
67	0.660	-800.62286	8.82806	-638.90063	769.36780	10.11025	-644.34186	-708.71008	7.85808	496.06226	733.10443	7.02541	506.00916	-14.13266	1308.03674	-961.92871	
68	0.670	-800.63300	8.75868	-638.95313	769.35999	10.10099	-644.36951	-708.67401	7.86255	496.10892	733.11359	7.00872	506.00592	-14.18883	1308.04639	-961.92761	
69	0.680	-800.61377	8.82724	-638.99152	769.31042	10.12071	-644.39679	-708.66956	7.80181	496.14706	733.43781	6.96159	505.87109	-14.18270	1308.04858	-961.95752	
70	0.690	-800.59906	8.84619	-638.90894	769.40491	10.11921	-644.32935	-708.69733	7.85145	496.10883	733.46985	7.00274	505.84332	-14.18483	1308.05566	-961.87878	
71	0.700	-800.63513	8.75381	-638.90643	769.39203	10.11138	-644.36823	-708.66467	7.83278	496.09970	733.14447	7.05359	506.00293	-14.20835	1308.05127	-961.92645	
72	0.710	-800.59729	8.80829	-638.95709	769.31232	10.14559	-644.36469	-708.65662	7.81209	496.12372	733.22339	7.05826	505.96997	-14.17521	1308.07227	-961.91394	
73	0.720	-800.58838	8.70372	-638.97388	769.42126	10.11918	-644.36340	-708.67633	7.83277	496.10675	733.40918	6.97237	505.88840	-14.19940	1308.06714	-961.89801	
74	0.730	-800.55627	8.76756	-639.00549	769.35297	10.11065	-644.37854	-708.68903	7.84963	496.11356	733.42407	6.96368	505.85507	-14.24852	1308.07581	-961.91388	
75	0.740	-800.62555	8.78570	-638.89282	769.29657	10.12025	-644.40009	-708.68658	7.83576	496.12509	733.13019	7.04109	506.01114	-14.23566	1308.08337	-961.93866	
